# xmcd CD database file
#
# Track frame offsets:
#	150
#	19655
#	41170
#	66922
#	89294
#	110116
#	129703
#	158370
#	184718
#	204545
#	222450
#	242580
#	263592
#	287142
#	310539
#	331901
#
# Disc length: 4678 seconds
#
# Revision: 0
# Processed by: cddbd v1.5.1PL2 Copyright (c) Steve Scherf et al.
# Submitted via: CDex 1.51
#
DISCID=e3124410
DTITLE=オムニバス - オムニバス
DYEAR=2005
DGENRE=Pop
TTITLE0=PRIDE/HIGH and MIGHTY COLOR
TTITLE1=Not Available - Not Available
TTITLE2=Not Available - Not Available
TTITLE3=Not Available - Not Available
TTITLE4=Not Available - Not Available
TTITLE5=Not Available - Not Available
TTITLE6=Not Available - Not Available
TTITLE7=Not Available - Not Available
TTITLE8=Not Available - Not Available
TTITLE9=Not Available - Not Available
TTITLE10=Not Available - Not Available
TTITLE11=Not Available - Not Available
TTITLE12=Not Available - Not Available
TTITLE13=Not Available - Not Available
TTITLE14=Not Available - Not Available
TTITLE15=Ayaka Hirahara - ASHITA
EXTD=YEAR: 2005
EXTT0=
EXTT1=
EXTT2=
EXTT3=
EXTT4=
EXTT5=
EXTT6=
EXTT7=
EXTT8=
EXTT9=
EXTT10=
EXTT11=
EXTT12=
EXTT13=
EXTT14=
EXTT15=
PLAYORDER=
